<?xml version="1.0" standalone="no"?>
<!DOCTYPE svg PUBLIC "-//W3C//DTD SVG 20010904//EN"
 "http://www.w3.org/TR/2001/REC-SVG-20010904/DTD/svg10.dtd">
<svg version="1.0" xmlns="http://www.w3.org/2000/svg"
 width="349.000000pt" height="349.000000pt" viewBox="0 0 349.000000 349.000000"
 preserveAspectRatio="xMidYMid meet">
<metadata>
Created by potrace 1.11, written by Peter Selinger 2001-2013
</metadata>
<g transform="translate(0.000000,349.000000) scale(0.100000,-0.100000)"
fill="#000000" stroke="none">
<path d="M2600 3380 c-96 -24 -156 -49 -228 -98 -238 -162 -580 -244 -872
-211 -150 17 -175 16 -201 -7 -91 -82 -105 -273 -23 -304 32 -13 245 3 337 24
114 27 442 148 557 206 l59 30 -24 -63 c-164 -434 -272 -692 -498 -1192 -79
-176 -176 -396 -216 -490 l-73 -170 -191 -93 c-232 -112 -351 -184 -478 -290
-239 -199 -304 -397 -172 -529 74 -73 192 -109 340 -101 151 8 271 68 404 201
102 102 167 208 323 528 l139 286 376 133 c814 288 920 329 953 362 24 24 24
74 -1 88 -30 16 -45 13 -144 -29 -79 -34 -1099 -383 -1103 -378 -2 3 84 203
162 377 36 80 206 426 379 770 334 667 445 899 445 930 0 11 -9 24 -19 30 -30
16 -148 11 -231 -10z m-1286 -2527 c-50 -113 -144 -289 -202 -378 -138 -213
-295 -287 -400 -190 -33 29 -37 39 -36 78 1 30 10 61 29 93 39 68 177 201 277
267 90 59 325 187 345 187 8 0 3 -21 -13 -57z"/>
<path d="M1486 3365 c-367 -60 -696 -231 -952 -497 -103 -107 -218 -267 -278
-387 -220 -438 -224 -962 -11 -1407 53 -111 163 -276 241 -362 l57 -63 33 32
33 32 -68 81 c-175 208 -284 434 -338 701 -27 135 -24 402 5 553 79 394 304
735 637 961 352 240 750 326 1186 255 l104 -17 55 28 55 28 -31 13 c-18 7 -76
23 -130 34 -131 29 -463 37 -598 15z"/>
<path d="M2774 2975 c-7 -19 -14 -37 -14 -41 0 -3 32 -36 71 -72 227 -210 389
-503 451 -814 17 -90 22 -148 22 -288 1 -194 -12 -282 -66 -450 -164 -511
-597 -904 -1133 -1028 -188 -44 -429 -52 -614 -22 l-64 11 -39 -38 c-47 -46
-48 -45 114 -69 87 -13 155 -15 298 -11 280 8 453 52 705 177 588 292 941 907
893 1555 -28 383 -184 721 -463 1003 -67 67 -127 122 -134 122 -6 0 -19 -16
-27 -35z"/>
</g>
</svg>
